# xmcd CD database file
#
# Track frame offsets:
#	150
#	138685
#	225137
#
# Disc length: 3616 seconds
#
# Revision: 0
# Processed by: cddbd v1.5.1PL2 Copyright (c) Steve Scherf et al.
# Submitted via: CDex 1.51
#
DISCID=1c0e1e03
DTITLE=Ostara - Reiki Love Meditation
DYEAR=2002
DGENRE=New Age
TTITLE0=1
TTITLE1=2
TTITLE2=3
EXTD=YEAR: 2002
EXTT0=
EXTT1=
EXTT2=
PLAYORDER=
